<!-- Generated by IcoMoon.io -->
<svg version="1.1" xmlns="http://www.w3.org/2000/svg" width="97" height="32" viewBox="0 0 97 32">
<title>logo</title>
<path fill="#32fd6b" d="M45.613 11.943v5.974c0 0.346-0.065 0.672-0.196 0.977s-0.31 0.572-0.538 0.798c-0.226 0.228-0.492 0.407-0.798 0.538s-0.632 0.196-0.977 0.196v0c-0.311 0-0.609-0.055-0.896-0.165-0.285-0.108-0.542-0.267-0.772-0.478v0c-0.229 0.21-0.488 0.37-0.777 0.478-0.288 0.11-0.588 0.165-0.898 0.165v0c-0.346 0-0.672-0.065-0.977-0.196-0.304-0.131-0.571-0.31-0.798-0.538-0.228-0.226-0.407-0.492-0.538-0.798s-0.196-0.631-0.196-0.977v0-5.974h1.675v5.974c0 0.117 0.021 0.226 0.065 0.33s0.102 0.193 0.177 0.267c0.076 0.076 0.165 0.136 0.266 0.179 0.102 0.043 0.211 0.065 0.327 0.065v0c0.117 0 0.225-0.021 0.327-0.065 0.1-0.043 0.188-0.103 0.266-0.179 0.076-0.075 0.135-0.164 0.177-0.267 0.043-0.104 0.065-0.214 0.065-0.33v0-5.974h1.675v5.974c0 0.117 0.021 0.226 0.065 0.33s0.102 0.193 0.177 0.267c0.076 0.076 0.165 0.136 0.266 0.179 0.102 0.043 0.211 0.065 0.327 0.065v0c0.117 0 0.225-0.021 0.327-0.065 0.1-0.043 0.188-0.103 0.266-0.179 0.075-0.075 0.135-0.164 0.181-0.267 0.045-0.104 0.067-0.214 0.067-0.33v0-5.974h1.668zM52.891 17.128v0c0 0.467-0.084 0.902-0.251 1.304s-0.394 0.751-0.681 1.044c-0.288 0.293-0.626 0.525-1.013 0.696-0.387 0.169-0.802 0.253-1.245 0.253v0c-0.44 0-0.853-0.084-1.24-0.253-0.387-0.17-0.725-0.402-1.016-0.696-0.288-0.293-0.516-0.641-0.683-1.044s-0.251-0.838-0.251-1.304v0c0-0.473 0.084-0.912 0.251-1.317s0.395-0.755 0.683-1.049c0.29-0.293 0.628-0.523 1.016-0.69s0.801-0.251 1.24-0.251v0c0.443 0 0.858 0.079 1.245 0.236s0.725 0.382 1.013 0.672c0.287 0.29 0.514 0.638 0.681 1.044s0.251 0.858 0.251 1.355zM51.288 17.128v0c0-0.256-0.041-0.488-0.124-0.696-0.084-0.209-0.198-0.388-0.342-0.538-0.145-0.15-0.313-0.264-0.504-0.344-0.193-0.080-0.398-0.119-0.617-0.119v0c-0.218 0-0.424 0.040-0.617 0.119-0.191 0.080-0.358 0.194-0.502 0.344-0.142 0.15-0.253 0.329-0.335 0.538-0.081 0.207-0.122 0.439-0.122 0.696v0c0 0.242 0.041 0.466 0.122 0.672 0.081 0.207 0.193 0.386 0.335 0.538 0.143 0.152 0.311 0.271 0.502 0.358 0.193 0.087 0.398 0.131 0.617 0.131v0c0.218 0 0.424-0.041 0.617-0.122 0.191-0.083 0.359-0.198 0.504-0.344 0.143-0.148 0.257-0.327 0.342-0.538 0.083-0.21 0.124-0.442 0.124-0.696zM55.364 16.868v3.441h-1.591v-6.249h0.385l0.526 0.741c0.257-0.233 0.548-0.413 0.874-0.54 0.326-0.126 0.665-0.188 1.016-0.188h1.405v1.587h-1.405c-0.167 0-0.325 0.031-0.473 0.093s-0.277 0.148-0.385 0.258c-0.11 0.108-0.196 0.236-0.258 0.385s-0.093 0.306-0.093 0.473v0zM64.641 11.575v8.734h-0.385l-0.619-0.858c-0.152 0.137-0.312 0.264-0.481 0.382-0.17 0.118-0.349 0.221-0.535 0.308s-0.378 0.157-0.573 0.208c-0.198 0.051-0.398 0.076-0.6 0.076v0c-0.438 0-0.85-0.083-1.238-0.249s-0.725-0.395-1.016-0.689-0.519-0.641-0.686-1.044c-0.167-0.403-0.251-0.842-0.251-1.317v0c0-0.47 0.084-0.907 0.251-1.312s0.396-0.755 0.686-1.049c0.29-0.296 0.628-0.528 1.016-0.696s0.8-0.251 1.238-0.251v0c0.14 0 0.285 0.012 0.435 0.036 0.15 0.022 0.295 0.060 0.437 0.112 0.143 0.052 0.277 0.122 0.402 0.208s0.229 0.191 0.315 0.315v0-2.918h1.604zM63.037 17.128v0c0-0.217-0.042-0.427-0.127-0.631-0.083-0.205-0.197-0.387-0.342-0.545-0.143-0.156-0.312-0.282-0.504-0.378s-0.398-0.143-0.617-0.143v0c-0.217 0-0.422 0.039-0.614 0.117s-0.36 0.19-0.502 0.335c-0.142 0.146-0.253 0.325-0.335 0.535-0.083 0.209-0.124 0.445-0.124 0.71v0c0 0.229 0.041 0.448 0.124 0.655 0.081 0.205 0.193 0.386 0.335 0.542s0.309 0.279 0.502 0.368 0.398 0.134 0.614 0.134v0c0.218 0 0.424-0.048 0.617-0.143s0.361-0.222 0.504-0.38c0.145-0.157 0.259-0.339 0.342-0.542 0.084-0.204 0.127-0.415 0.127-0.633zM76.056 17.8v0c0 0.346-0.066 0.67-0.198 0.975-0.132 0.302-0.312 0.568-0.54 0.796-0.226 0.228-0.492 0.408-0.796 0.54-0.302 0.132-0.628 0.198-0.975 0.198h-4.182v-8.366h4.182c0.347 0 0.672 0.066 0.975 0.198 0.304 0.132 0.569 0.312 0.796 0.54 0.228 0.228 0.408 0.493 0.54 0.796 0.132 0.304 0.198 0.63 0.198 0.975v0c0 0.155-0.021 0.314-0.065 0.478-0.041 0.164-0.101 0.322-0.179 0.473s-0.171 0.289-0.28 0.413c-0.11 0.124-0.231 0.228-0.363 0.311v0c0.137 0.073 0.26 0.173 0.368 0.299 0.108 0.128 0.201 0.267 0.28 0.418s0.138 0.31 0.179 0.475c0.040 0.166 0.060 0.326 0.060 0.481zM71.040 16.966v1.668h2.507c0.118 0 0.227-0.021 0.327-0.065 0.102-0.041 0.19-0.1 0.266-0.177 0.076-0.076 0.136-0.165 0.179-0.266 0.043-0.102 0.065-0.211 0.065-0.327v0c0-0.117-0.021-0.225-0.065-0.327-0.043-0.1-0.103-0.188-0.179-0.266-0.075-0.075-0.163-0.134-0.266-0.177-0.1-0.043-0.209-0.065-0.327-0.065h-2.507zM71.040 13.618v1.673h2.507c0.118 0 0.227-0.021 0.327-0.062 0.102-0.043 0.19-0.103 0.266-0.179 0.076-0.076 0.136-0.166 0.179-0.268 0.043-0.104 0.065-0.214 0.065-0.33v0c0-0.117-0.021-0.225-0.065-0.327-0.043-0.1-0.103-0.188-0.179-0.266-0.075-0.076-0.163-0.135-0.266-0.177-0.1-0.043-0.209-0.065-0.327-0.065h-2.507zM83.203 14.072v6.237h-0.385l-0.619-0.858c-0.152 0.137-0.312 0.264-0.483 0.382-0.169 0.118-0.347 0.221-0.533 0.308s-0.378 0.157-0.573 0.208c-0.198 0.051-0.398 0.076-0.6 0.076v0c-0.44 0-0.852-0.074-1.238-0.222-0.387-0.148-0.725-0.363-1.016-0.645s-0.519-0.627-0.686-1.034c-0.167-0.408-0.251-0.873-0.251-1.396v0c0-0.486 0.084-0.932 0.251-1.338s0.396-0.755 0.686-1.047c0.29-0.291 0.628-0.519 1.016-0.681 0.385-0.161 0.798-0.242 1.238-0.242v0c0.202 0 0.403 0.025 0.602 0.076 0.198 0.051 0.389 0.121 0.576 0.21 0.188 0.089 0.367 0.194 0.535 0.315 0.169 0.119 0.327 0.249 0.475 0.389v0l0.619-0.741h0.385zM81.597 17.128v0c0-0.217-0.041-0.427-0.124-0.631-0.084-0.205-0.198-0.387-0.342-0.545-0.143-0.156-0.312-0.282-0.504-0.378s-0.398-0.143-0.617-0.143v0c-0.217 0-0.422 0.037-0.614 0.11-0.193 0.075-0.36 0.184-0.502 0.327s-0.254 0.321-0.337 0.533c-0.081 0.214-0.122 0.455-0.122 0.727v0c0 0.273 0.041 0.514 0.122 0.727 0.083 0.212 0.195 0.391 0.337 0.535 0.142 0.143 0.309 0.252 0.502 0.325 0.193 0.075 0.398 0.112 0.614 0.112v0c0.218 0 0.424-0.048 0.617-0.143s0.361-0.222 0.504-0.38c0.143-0.157 0.257-0.339 0.342-0.542 0.083-0.204 0.124-0.415 0.124-0.633zM86.009 16.739v3.57h-1.594v-6.249h0.385l0.526 0.607c0.257-0.233 0.547-0.413 0.872-0.54 0.325-0.126 0.665-0.188 1.018-0.188v0c0.381 0 0.741 0.073 1.080 0.22 0.337 0.145 0.633 0.345 0.887 0.6s0.453 0.552 0.597 0.894c0.146 0.339 0.22 0.701 0.22 1.087v0 3.57h-1.594v-3.57c0-0.164-0.031-0.319-0.093-0.464-0.062-0.146-0.148-0.274-0.256-0.382-0.11-0.11-0.236-0.196-0.38-0.258s-0.297-0.093-0.461-0.093v0c-0.167 0-0.325 0.031-0.473 0.093-0.146 0.062-0.275 0.148-0.385 0.258-0.108 0.108-0.194 0.236-0.256 0.382-0.062 0.145-0.093 0.299-0.093 0.464v0zM92.736 19.511v0.798h-1.606v-8.734h1.606v5.508l2.373-3.011h1.833l-2.072 2.602 2.072 3.635h-1.833l-1.266-2.27-1.106 1.472z"></path>
<path fill="#32fd6b" d="M16.012 12.934c0.78 0 1.415-0.635 1.415-1.415 0-0.281-0.084-0.543-0.225-0.764l0.223-1.562c0.013-0.092-0.029-0.183-0.108-0.233s-0.179-0.049-0.256 0.003l-0.485 0.324-0.352-0.705c-0.080-0.16-0.342-0.16-0.422 0l-0.352 0.705-0.485-0.324c-0.078-0.052-0.178-0.053-0.257-0.003s-0.121 0.141-0.108 0.233l0.223 1.562c-0.142 0.221-0.225 0.482-0.225 0.764 0 0.78 0.635 1.415 1.415 1.415zM16.012 12.462c-0.52 0-0.944-0.423-0.944-0.944s0.423-0.944 0.944-0.944 0.944 0.423 0.944 0.944-0.423 0.944-0.944 0.944zM15.409 9.828c0.056 0.038 0.126 0.049 0.192 0.032s0.12-0.062 0.15-0.122l0.26-0.521 0.26 0.521c0.030 0.060 0.085 0.105 0.15 0.122s0.135 0.006 0.192-0.032l0.269-0.179-0.098 0.686c-0.223-0.146-0.488-0.231-0.773-0.231s-0.551 0.085-0.773 0.231l-0.098-0.686 0.268 0.179z"></path>
<path fill="#32fd6b" d="M19.078 22.132c0-0.13-0.106-0.246-0.236-0.246h-0.728l-0.202-2.214c0.065-0.014 0.153-0.021 0.237-0.011 0.096 0.011 0.198 0.050 0.306 0.089l0.071 0.027c0.313 0.111 0.64 0.187 0.97 0.223 0.032 0.003 0.082 0.009 0.141 0.009 0.126 0 0.294-0.025 0.421-0.15 0.079-0.078 0.119-0.172 0.144-0.245 0.066-0.187 0.095-0.392 0.083-0.59-0.057-0.967-0.388-1.851-0.984-2.628-0.165-0.215-0.348-0.416-0.526-0.611-0.295-0.325-0.571-0.636-0.764-0.992l1.407-0.704c0.023-0.011 0.043-0.026 0.062-0.044l1.651-1.651c0.092-0.092 0.092-0.242 0-0.334l-0.944-0.944c-0.092-0.092-0.242-0.092-0.334 0l-1.615 1.61-1.799 0.67h-0.858l-1.799-0.67-1.615-1.612c-0.092-0.092-0.242-0.091-0.334 0.001l-0.944 0.944c-0.092 0.092-0.092 0.242 0 0.334l1.651 1.652c0.018 0.018 0.039 0.033 0.062 0.044l1.281 0.641c-0.018 0.736-0.457 1.532-0.851 2.24l-0.098 0.176c-0.47 0.849-0.833 1.756-1.080 2.694-0.028 0.109 0.025 0.224 0.126 0.273 0.033 0.016 0.067 0.023 0.102 0.023 0.073 0 0.144-0.034 0.19-0.096 0.183-0.247 0.405-0.458 0.661-0.627 0.072-0.047 0.152-0.1 0.235-0.099 0.091 0.003 0.193 0.091 0.301 0.186 0.047 0.041 0.094 0.082 0.142 0.118 0.19 0.145 0.339 0.172 0.488 0.17l-0.191 2.099h-0.493c-0.13 0-0.236 0.116-0.236 0.246v0.933h-4.717v0.472h4.954c0.13 0 0.236-0.095 0.236-0.225v-0.954h4.954v0.954c0 0.13 0.106 0.225 0.236 0.225h4.717v-0.472h-4.481v-0.933zM18.927 16.682c0.538 0.7 0.836 1.497 0.887 2.368 0.008 0.137-0.012 0.277-0.057 0.406-0.017 0.050-0.028 0.063-0.030 0.065-0.001 0.001-0.029 0.025-0.179 0.009-0.294-0.032-0.585-0.099-0.865-0.198l-0.067-0.025c-0.128-0.047-0.262-0.095-0.413-0.113-0.084-0.010-0.209-0.011-0.334 0.010l-0.206-2.261v-1.806c0.215 0.356 0.492 0.665 0.764 0.963 0.171 0.188 0.347 0.382 0.5 0.582zM16.378 13.867l-0.367 0.979-0.367-0.979h0.734zM13.898 19.242c-0.040-0.030-0.079-0.065-0.119-0.099-0.151-0.131-0.338-0.294-0.598-0.301-0.204-0.010-0.378 0.092-0.507 0.177-0.032 0.021-0.063 0.042-0.093 0.064 0.207-0.589 0.464-1.162 0.767-1.709l0.097-0.175c0.367-0.658 0.809-1.454 0.9-2.24l0.016 0.008v1.956s-0.217 2.397-0.217 2.397c-0.11 0.007-0.149-0.005-0.244-0.077zM15.801 21.886l0.21-1.993 0.21 1.992h-0.419zM16.695 21.886l-0.45-4.265c-0.013-0.12-0.114-0.209-0.234-0.209s-0.222 0.087-0.234 0.207l-0.449 4.266h-0.945l0.45-4.943v-2.123c0-0.089-0.051-0.171-0.13-0.211l-1.853-0.926-1.457-1.457 0.61-0.61 1.485 1.485c0.024 0.024 0.052 0.042 0.084 0.054l1.516 0.569-0.003 0.001 0.708 1.887c0.034 0.092 0.122 0.153 0.221 0.153s0.187-0.061 0.221-0.153l0.708-1.887-0.003-0.001 1.516-0.569c0.032-0.012 0.060-0.030 0.084-0.054l1.484-1.485 0.61 0.61-1.457 1.457-1.853 0.926c-0.080 0.040-0.13 0.122-0.13 0.211v2.139s0.45 4.926 0.45 4.926h-0.945z"></path>
<path fill="#32fd6b" d="M22.38 14.349v-0.472c-1.17 0-2.123 0.933-2.123 2.113h0.472c0-0.944 0.74-1.641 1.651-1.641z"></path>
<path fill="#32fd6b" d="M11.058 22.594h0.472c0-3.774-1.347-6.594-3.066-6.594v0.472c1.406 0 2.595 2.82 2.595 6.122z"></path>
<path fill="#32fd6b" d="M10.351 13.877v0.472c0.911 0 1.651 0.933 1.651 1.876h0.472c0-1.179-0.953-2.349-2.123-2.349z"></path>
<path fill="#32fd6b" d="M20.729 21.651h0.472c0-2.123 1.058-4 2.359-4v-0.472c-1.587 0-2.83 1.876-2.83 4.471z"></path>
<path fill="#32fd6b" d="M23.323 15.292v-0.472c-1.17 0-2.123 0.933-2.123 1.876h0.472c0-0.708 0.74-1.405 1.651-1.405z"></path>
<path fill="#32fd6b" d="M9.407 22.122h0.472c0-0.708-0.635-1.405-1.415-1.405v0.472c0.52 0 0.944 0.461 0.944 0.933z"></path>
<path fill="#32fd6b" d="M21.908 9.16h0.472v0.472h-0.472v-0.472z"></path>
<path fill="#32fd6b" d="M19.078 14.821h0.472v0.472h-0.472v-0.472z"></path>
<path fill="#32fd6b" d="M21.437 10.575h0.472v0.472h-0.472v-0.472z"></path>
<path fill="#32fd6b" d="M22.852 10.575h0.472v0.472h-0.472v-0.472z"></path>
<path fill="#32fd6b" d="M22.38 12.698h0.472v0.472h-0.472v-0.472z"></path>
<path fill="#32fd6b" d="M22.852 13.877h0.472v0.472h-0.472v-0.472z"></path>
<path fill="#32fd6b" d="M22.38 20.717h0.472v0.472h-0.472v-0.472z"></path>
<path fill="#32fd6b" d="M20.729 17.415h0.472v0.472h-0.472v-0.472z"></path>
<path fill="#32fd6b" d="M20.729 22.132h0.472v0.472h-0.472v-0.472z"></path>
<path fill="#32fd6b" d="M19.549 9.631h0.472v0.472h-0.472v-0.472z"></path>
<path fill="#32fd6b" d="M11.294 9.631h0.472v0.472h-0.472v-0.472z"></path>
<path fill="#32fd6b" d="M9.879 11.046h0.472v0.472h-0.472v-0.472z"></path>
<path fill="#32fd6b" d="M9.407 9.631h0.472v0.472h-0.472v-0.472z"></path>
<path fill="#32fd6b" d="M12.002 16.707h0.472v0.472h-0.472v-0.472z"></path>
<path fill="#32fd6b" d="M10.114 15.292h0.472v0.472h-0.472v-0.472z"></path>
<path fill="#32fd6b" d="M8.699 12.698h0.472v0.472h-0.472v-0.472z"></path>
<path fill="#32fd6b" d="M8.699 18.359h0.472v0.472h-0.472v-0.472z"></path>
<path fill="#32fd6b" d="M0.953 9.285l1.727 0.62c0.1 0.036 0.188 0.089 0.263 0.158s0.133 0.148 0.176 0.238c0.042 0.089 0.066 0.185 0.072 0.287s-0.009 0.203-0.045 0.304v0c-0.032 0.089-0.078 0.17-0.139 0.242s-0.134 0.129-0.219 0.173v0c0.037 0.088 0.056 0.18 0.058 0.275 0.001 0.094-0.014 0.186-0.047 0.275v0c-0.036 0.1-0.089 0.188-0.158 0.263s-0.148 0.133-0.238 0.176c-0.089 0.042-0.185 0.066-0.287 0.072s-0.203-0.009-0.304-0.045v0l-1.727-0.62 0.174-0.484 1.727 0.62c0.034 0.012 0.067 0.018 0.102 0.017 0.034-0.002 0.067-0.010 0.096-0.024s0.056-0.034 0.080-0.058c0.022-0.026 0.039-0.056 0.052-0.089v0c0.012-0.034 0.018-0.067 0.016-0.1s-0.010-0.065-0.025-0.095c-0.014-0.030-0.034-0.057-0.060-0.080-0.026-0.022-0.056-0.040-0.089-0.052v0l-1.727-0.62 0.174-0.484 1.727 0.62c0.034 0.012 0.068 0.018 0.102 0.016s0.067-0.010 0.096-0.024c0.030-0.014 0.056-0.034 0.080-0.058 0.022-0.025 0.039-0.054 0.051-0.087v0c0.012-0.034 0.018-0.067 0.017-0.102-0.002-0.034-0.010-0.065-0.025-0.095s-0.034-0.057-0.060-0.080c-0.025-0.023-0.055-0.041-0.089-0.053v0l-1.727-0.62 0.174-0.483z"></path>
<path fill="#32fd6b" d="M5.206 5.875v0c0.11 0.092 0.196 0.198 0.257 0.317 0.062 0.119 0.1 0.241 0.113 0.366 0.012 0.126 0 0.251-0.036 0.376-0.037 0.124-0.099 0.238-0.186 0.343v0c-0.087 0.104-0.188 0.185-0.303 0.243s-0.238 0.092-0.363 0.102c-0.126 0.010-0.253-0.004-0.381-0.044s-0.247-0.106-0.357-0.198v0c-0.112-0.094-0.2-0.2-0.262-0.319s-0.1-0.242-0.113-0.369c-0.012-0.126 0-0.251 0.037-0.375s0.098-0.238 0.185-0.341v0c0.087-0.104 0.187-0.187 0.301-0.247s0.233-0.096 0.358-0.108c0.125-0.010 0.251 0.005 0.38 0.045s0.253 0.109 0.371 0.207zM4.89 6.253v0c-0.060-0.051-0.124-0.086-0.19-0.107-0.065-0.021-0.13-0.029-0.193-0.025s-0.124 0.021-0.181 0.051c-0.057 0.030-0.107 0.071-0.149 0.121v0c-0.043 0.051-0.073 0.108-0.093 0.168s-0.025 0.123-0.017 0.186c0.007 0.063 0.027 0.125 0.059 0.185 0.034 0.060 0.081 0.116 0.141 0.166v0c0.056 0.047 0.117 0.082 0.181 0.104 0.065 0.021 0.13 0.029 0.193 0.025 0.063-0.003 0.125-0.018 0.183-0.047 0.060-0.028 0.11-0.067 0.153-0.119v0c0.043-0.051 0.073-0.108 0.091-0.17s0.025-0.124 0.018-0.187c-0.006-0.063-0.026-0.124-0.059-0.185s-0.078-0.118-0.138-0.168z"></path>
<path fill="#32fd6b" d="M7.746 3.689l0.582 0.883-0.409 0.269-1.056-1.603 0.098-0.065 0.261 0.1c0.027-0.103 0.071-0.199 0.133-0.286s0.139-0.161 0.228-0.22v0l0.36-0.238 0.269 0.408-0.36 0.238c-0.043 0.029-0.078 0.063-0.107 0.104-0.027 0.041-0.045 0.085-0.055 0.131s-0.010 0.093 0 0.142c0.008 0.049 0.027 0.094 0.055 0.137z"></path>
<path fill="#32fd6b" d="M12.283 0l0.764 2.572-0.113 0.034-0.258-0.199c-0.033 0.054-0.069 0.106-0.109 0.155s-0.082 0.095-0.129 0.138c-0.047 0.042-0.098 0.079-0.152 0.111s-0.11 0.057-0.17 0.075v0c-0.13 0.038-0.258 0.051-0.387 0.036-0.128-0.016-0.248-0.053-0.359-0.115s-0.209-0.144-0.293-0.247-0.147-0.226-0.188-0.365v0c-0.041-0.139-0.055-0.275-0.041-0.409 0.014-0.133 0.051-0.256 0.11-0.369s0.139-0.21 0.238-0.293c0.099-0.083 0.214-0.144 0.343-0.182v0c0.041-0.012 0.085-0.021 0.131-0.028s0.093-0.008 0.14-0.005c0.045 0.003 0.091 0.011 0.136 0.025 0.044 0.015 0.084 0.036 0.12 0.065v0l-0.255-0.858 0.473-0.141zM12.296 1.776v0c-0.019-0.065-0.051-0.123-0.094-0.176-0.042-0.052-0.091-0.096-0.147-0.129-0.056-0.034-0.117-0.057-0.182-0.068s-0.13-0.008-0.194 0.011v0c-0.064 0.019-0.12 0.048-0.171 0.087s-0.089 0.089-0.117 0.144c-0.030 0.055-0.047 0.117-0.054 0.186-0.005 0.069 0.004 0.143 0.027 0.221v0c0.020 0.068 0.051 0.128 0.093 0.183 0.042 0.052 0.091 0.096 0.147 0.129s0.115 0.056 0.179 0.065 0.129 0.005 0.193-0.014v0c0.064-0.019 0.12-0.051 0.168-0.096s0.087-0.097 0.115-0.156 0.046-0.122 0.052-0.19c0.008-0.067 0.002-0.133-0.017-0.197v0z"></path>
<path fill="#32fd6b" d="M21.265 2.436v0c-0.029 0.102-0.076 0.193-0.141 0.271-0.064 0.078-0.139 0.142-0.226 0.19-0.086 0.049-0.179 0.080-0.28 0.093s-0.203 0.006-0.305-0.023v0l-1.236-0.352 0.703-2.473 1.236 0.352c0.102 0.029 0.193 0.076 0.271 0.141s0.142 0.139 0.19 0.227c0.049 0.086 0.080 0.179 0.093 0.28s0.006 0.203-0.023 0.305v0c-0.013 0.047-0.033 0.092-0.060 0.136s-0.058 0.086-0.093 0.124c-0.036 0.039-0.075 0.072-0.118 0.099-0.043 0.028-0.087 0.049-0.132 0.062v0c0.034 0.033 0.062 0.073 0.082 0.119 0.022 0.047 0.038 0.096 0.047 0.148 0.011 0.051 0.016 0.103 0.014 0.155s-0.009 0.1-0.023 0.147v0zM19.852 1.768l-0.14 0.494 0.742 0.211c0.034 0.010 0.069 0.013 0.103 0.008 0.033-0.005 0.064-0.014 0.093-0.029 0.028-0.016 0.053-0.038 0.075-0.065 0.021-0.026 0.037-0.056 0.047-0.091v0c0.010-0.034 0.012-0.068 0.008-0.102s-0.014-0.065-0.029-0.093c-0.016-0.029-0.038-0.054-0.063-0.076-0.027-0.021-0.058-0.037-0.092-0.047v0l-0.742-0.211zM20.134 0.778l-0.141 0.495 0.742 0.21c0.034 0.010 0.069 0.013 0.103 0.008 0.033-0.005 0.064-0.014 0.093-0.029 0.028-0.016 0.053-0.038 0.075-0.065s0.037-0.058 0.047-0.092v0c0.010-0.034 0.012-0.068 0.008-0.102s-0.014-0.065-0.029-0.093c-0.016-0.029-0.038-0.054-0.063-0.075s-0.058-0.037-0.092-0.047v0l-0.742-0.211z"></path>
<path fill="#32fd6b" d="M25.991 3.854l-1.097 1.571-0.097-0.068-0.005-0.326c-0.062 0.008-0.124 0.012-0.188 0.013s-0.126-0.006-0.189-0.016c-0.062-0.011-0.122-0.027-0.181-0.049s-0.113-0.051-0.165-0.087v0c-0.111-0.077-0.202-0.168-0.274-0.273s-0.119-0.218-0.142-0.341-0.020-0.249 0.009-0.381c0.030-0.133 0.091-0.264 0.183-0.395v0c0.085-0.122 0.185-0.22 0.299-0.293s0.233-0.121 0.357-0.144c0.124-0.022 0.249-0.019 0.375 0.007 0.126 0.028 0.244 0.080 0.354 0.157v0c0.051 0.036 0.098 0.078 0.139 0.125s0.076 0.098 0.108 0.154 0.058 0.113 0.080 0.174c0.022 0.060 0.039 0.12 0.051 0.181v0l0.286-0.077 0.097 0.067zM25.049 4.342v0c0.039-0.056 0.065-0.116 0.080-0.182s0.017-0.131 0.009-0.196c-0.009-0.066-0.029-0.128-0.060-0.185-0.032-0.058-0.075-0.107-0.131-0.146v0c-0.054-0.038-0.113-0.065-0.174-0.080s-0.123-0.017-0.184-0.005c-0.062 0.011-0.12 0.036-0.177 0.075-0.058 0.039-0.111 0.093-0.16 0.162v0c-0.048 0.069-0.080 0.137-0.096 0.205-0.017 0.068-0.021 0.132-0.010 0.194s0.033 0.117 0.069 0.17c0.035 0.053 0.080 0.099 0.135 0.137v0c0.056 0.039 0.116 0.063 0.181 0.073s0.13 0.006 0.194-0.007c0.063-0.014 0.124-0.040 0.181-0.078 0.057-0.036 0.104-0.082 0.142-0.137z"></path>
<path fill="#32fd6b" d="M27.937 7.031l-0.874 0.661-0.295-0.391 1.53-1.158 0.071 0.095-0.050 0.242c0.105 0.019 0.203 0.058 0.293 0.113s0.17 0.127 0.236 0.214v0c0.071 0.093 0.119 0.195 0.146 0.305s0.032 0.219 0.017 0.328c-0.016 0.109-0.052 0.214-0.108 0.313s-0.131 0.184-0.226 0.256v0l-0.874 0.661-0.295-0.391 0.874-0.661c0.040-0.030 0.072-0.067 0.096-0.109s0.040-0.087 0.047-0.134c0.006-0.047 0.003-0.093-0.008-0.14s-0.032-0.090-0.062-0.13v0c-0.031-0.041-0.068-0.074-0.111-0.098s-0.087-0.040-0.133-0.047c-0.047-0.006-0.095-0.004-0.142 0.009-0.048 0.012-0.091 0.032-0.131 0.063v0z"></path>
<path fill="#32fd6b" d="M29.389 11.399l-0.232 0.081-0.163-0.466 2.533-0.883 0.163 0.466-1.597 0.556 1.113 0.386 0.185 0.53-0.964-0.337-0.845 0.968-0.185-0.53 0.53-0.598-0.538-0.174z"></path>
<path fill="#32fd6b" d="M4.053 22.37l-1.776 0.642c-0.103 0.038-0.207 0.052-0.313 0.046-0.104-0.006-0.203-0.030-0.294-0.073-0.093-0.043-0.176-0.104-0.247-0.18s-0.126-0.166-0.163-0.269v0c-0.034-0.093-0.049-0.187-0.047-0.285 0.001-0.096 0.021-0.19 0.058-0.28v0c-0.087-0.046-0.163-0.106-0.225-0.18-0.063-0.073-0.112-0.156-0.146-0.249v0c-0.037-0.102-0.052-0.206-0.047-0.312 0.006-0.104 0.030-0.203 0.075-0.295 0.043-0.093 0.102-0.175 0.179-0.246 0.078-0.071 0.168-0.126 0.271-0.163v0l1.776-0.642 0.18 0.498-1.776 0.642c-0.035 0.012-0.065 0.030-0.091 0.054s-0.047 0.051-0.062 0.081c-0.014 0.031-0.021 0.064-0.023 0.098s0.004 0.069 0.016 0.104v0c0.012 0.035 0.030 0.065 0.054 0.091 0.023 0.025 0.050 0.045 0.080 0.059s0.065 0.023 0.1 0.025c0.036 0.001 0.071-0.005 0.105-0.017v0l1.776-0.642 0.18 0.498-1.776 0.642c-0.035 0.012-0.065 0.030-0.091 0.054s-0.047 0.052-0.062 0.083c-0.014 0.030-0.022 0.063-0.023 0.098-0.002 0.034 0.004 0.069 0.016 0.104v0c0.012 0.035 0.030 0.065 0.054 0.090s0.051 0.045 0.081 0.060c0.031 0.014 0.065 0.022 0.1 0.025s0.071-0.003 0.106-0.016v0l1.776-0.642 0.18 0.497z"></path>
<path fill="#32fd6b" d="M5.279 26.85v0c-0.113 0.095-0.235 0.163-0.367 0.205s-0.262 0.056-0.392 0.047c-0.129-0.010-0.254-0.045-0.374-0.103-0.12-0.060-0.225-0.143-0.315-0.251v0c-0.089-0.106-0.153-0.223-0.191-0.351s-0.051-0.258-0.038-0.387c0.012-0.13 0.050-0.256 0.113-0.378 0.063-0.123 0.152-0.232 0.265-0.327v0c0.115-0.096 0.238-0.165 0.37-0.207s0.262-0.058 0.393-0.048c0.13 0.010 0.255 0.045 0.374 0.106 0.12 0.060 0.224 0.142 0.313 0.249v0c0.090 0.108 0.155 0.224 0.196 0.35 0.041 0.125 0.055 0.252 0.043 0.381s-0.049 0.255-0.113 0.378c-0.063 0.123-0.156 0.235-0.277 0.337zM4.952 26.461v0c0.062-0.052 0.109-0.109 0.143-0.172 0.034-0.063 0.054-0.127 0.062-0.192s0-0.129-0.019-0.192c-0.020-0.062-0.052-0.12-0.097-0.173v0c-0.044-0.052-0.095-0.094-0.153-0.124-0.059-0.030-0.121-0.048-0.186-0.052s-0.131 0.005-0.199 0.029c-0.067 0.023-0.131 0.060-0.193 0.112v0c-0.059 0.049-0.104 0.104-0.137 0.166s-0.054 0.125-0.062 0.191-0.003 0.131 0.016 0.196c0.018 0.064 0.049 0.122 0.093 0.175v0c0.045 0.053 0.096 0.095 0.155 0.124 0.060 0.030 0.122 0.047 0.187 0.052s0.131-0.005 0.199-0.027c0.068-0.023 0.133-0.060 0.194-0.111v0z"></path>
<path fill="#32fd6b" d="M7.877 28.854l-0.597 0.911-0.421-0.276 1.084-1.653 0.102 0.067 0.010 0.288c0.109-0.017 0.218-0.014 0.326 0.010s0.209 0.065 0.301 0.126v0l0.371 0.244-0.275 0.418-0.371-0.244c-0.045-0.029-0.092-0.048-0.143-0.057-0.049-0.009-0.098-0.009-0.145 0s-0.093 0.029-0.135 0.058c-0.041 0.028-0.077 0.064-0.106 0.109v0z"></path>
<path fill="#32fd6b" d="M13.32 29.351l-0.783 2.649-0.118-0.035-0.11-0.316c-0.058 0.028-0.119 0.052-0.18 0.073-0.063 0.021-0.126 0.036-0.19 0.047-0.065 0.010-0.13 0.013-0.194 0.010s-0.126-0.012-0.188-0.030v0c-0.133-0.040-0.25-0.101-0.354-0.186s-0.185-0.185-0.246-0.301c-0.062-0.115-0.1-0.242-0.114-0.378s-0.001-0.277 0.041-0.422v0c0.042-0.142 0.107-0.267 0.194-0.375 0.086-0.108 0.187-0.194 0.302-0.256 0.114-0.065 0.238-0.104 0.37-0.12s0.266-0.005 0.398 0.034v0c0.043 0.013 0.086 0.029 0.13 0.049s0.084 0.045 0.122 0.075c0.038 0.029 0.073 0.061 0.102 0.098s0.053 0.079 0.067 0.124v0l0.262-0.885 0.487 0.144zM12.335 30.891v0c0.019-0.066 0.025-0.133 0.018-0.203s-0.025-0.135-0.054-0.196c-0.029-0.061-0.069-0.114-0.119-0.16-0.049-0.045-0.108-0.078-0.174-0.098v0c-0.066-0.019-0.131-0.026-0.196-0.019-0.066 0.006-0.127 0.025-0.183 0.056s-0.106 0.075-0.15 0.132c-0.043 0.056-0.076 0.124-0.1 0.204v0c-0.021 0.070-0.028 0.14-0.022 0.21s0.024 0.133 0.053 0.194c0.029 0.061 0.069 0.113 0.12 0.157 0.050 0.045 0.108 0.076 0.174 0.096v0c0.067 0.020 0.133 0.023 0.2 0.011 0.067-0.011 0.13-0.034 0.187-0.069s0.108-0.078 0.152-0.133c0.044-0.055 0.076-0.116 0.095-0.181v0z"></path>
<path fill="#32fd6b" d="M21.387 30.622v0c0.030 0.106 0.038 0.21 0.023 0.314s-0.046 0.2-0.096 0.289-0.115 0.166-0.196 0.233-0.174 0.115-0.28 0.144v0l-1.273 0.359-0.72-2.546 1.273-0.359c0.106-0.030 0.21-0.038 0.314-0.023s0.2 0.046 0.289 0.096 0.166 0.115 0.233 0.196 0.115 0.174 0.144 0.28v0c0.014 0.047 0.021 0.097 0.022 0.15s-0.004 0.108-0.016 0.161c-0.011 0.052-0.027 0.102-0.049 0.15-0.023 0.047-0.051 0.089-0.084 0.126v0c0.047 0.010 0.093 0.029 0.138 0.058s0.085 0.063 0.122 0.103c0.037 0.040 0.068 0.083 0.094 0.13 0.027 0.047 0.047 0.093 0.060 0.141v0zM19.789 30.8l0.143 0.507 0.762-0.216c0.036-0.010 0.067-0.026 0.095-0.047 0.027-0.021 0.049-0.047 0.064-0.077 0.017-0.029 0.028-0.061 0.032-0.095s0.001-0.071-0.009-0.106v0c-0.010-0.036-0.026-0.067-0.047-0.093s-0.047-0.049-0.078-0.066c-0.029-0.016-0.061-0.027-0.095-0.030-0.035-0.004-0.071-0.001-0.106 0.009v0l-0.762 0.216zM19.501 29.781l0.144 0.51 0.762-0.216c0.036-0.010 0.067-0.027 0.095-0.049 0.027-0.021 0.049-0.047 0.065-0.076 0.017-0.030 0.027-0.063 0.032-0.096 0.004-0.035 0.001-0.071-0.009-0.106v0c-0.010-0.036-0.026-0.067-0.047-0.095-0.021-0.027-0.047-0.049-0.077-0.064-0.029-0.017-0.061-0.028-0.095-0.032s-0.071-0.001-0.106 0.009v0l-0.762 0.216z"></path>
<path fill="#32fd6b" d="M24.897 27.24l1.126 1.619-0.1 0.069-0.317-0.111c-0.015 0.063-0.034 0.125-0.056 0.187s-0.049 0.12-0.082 0.177c-0.032 0.056-0.069 0.108-0.112 0.156-0.042 0.049-0.089 0.092-0.141 0.128v0c-0.114 0.080-0.235 0.135-0.363 0.166-0.126 0.032-0.253 0.038-0.38 0.017-0.126-0.022-0.248-0.071-0.365-0.146s-0.223-0.181-0.317-0.316v0c-0.087-0.126-0.146-0.257-0.177-0.394-0.029-0.135-0.033-0.267-0.011-0.394s0.070-0.248 0.141-0.36c0.071-0.112 0.165-0.208 0.279-0.288v0c0.052-0.036 0.108-0.065 0.169-0.088 0.061-0.024 0.124-0.040 0.188-0.050 0.065-0.011 0.13-0.016 0.196-0.015 0.066 0 0.131 0.005 0.194 0.015v0l0.028-0.304 0.1-0.069zM25.033 28.322v0c-0.040-0.056-0.088-0.103-0.147-0.141s-0.121-0.064-0.188-0.079c-0.065-0.016-0.132-0.017-0.2-0.007s-0.128 0.035-0.185 0.074v0c-0.057 0.040-0.104 0.086-0.141 0.139-0.037 0.054-0.060 0.113-0.070 0.176-0.011 0.063-0.008 0.129 0.010 0.2 0.016 0.070 0.049 0.14 0.098 0.21v0c0.049 0.071 0.104 0.126 0.165 0.166 0.059 0.040 0.12 0.066 0.183 0.078s0.124 0.010 0.188-0.006c0.063-0.016 0.123-0.043 0.18-0.082v0c0.056-0.040 0.1-0.089 0.132-0.148 0.034-0.060 0.054-0.122 0.063-0.19 0.010-0.067 0.007-0.134-0.008-0.202s-0.043-0.131-0.082-0.188v0z"></path>
<path fill="#32fd6b" d="M27.704 25.515l0.899 0.683-0.304 0.401-1.574-1.195 0.073-0.096 0.253-0.016c-0.009-0.109 0.001-0.218 0.031-0.323s0.079-0.203 0.147-0.293v0c0.073-0.095 0.159-0.172 0.261-0.229s0.209-0.093 0.322-0.109c0.112-0.016 0.225-0.008 0.339 0.020 0.113 0.029 0.219 0.080 0.316 0.153v0l0.899 0.683-0.304 0.401-0.899-0.683c-0.041-0.032-0.087-0.054-0.135-0.066s-0.098-0.014-0.146-0.008c-0.048 0.007-0.093 0.023-0.136 0.047-0.044 0.025-0.082 0.057-0.113 0.098v0c-0.032 0.042-0.054 0.089-0.067 0.139-0.012 0.049-0.016 0.096-0.010 0.145s0.023 0.095 0.047 0.138 0.058 0.081 0.1 0.112v0z"></path>
<path fill="#32fd6b" d="M30.753 21.803l0.239 0.084-0.168 0.478-2.607-0.915 0.168-0.478 1.645 0.577-0.65-1.024 0.192-0.548 0.558 0.891 1.302-0.238-0.192 0.547-0.809 0.139 0.321 0.485z"></path>
<path fill="#32fd6b" d="M0 16.341c0-0.566 0.459-1.025 1.025-1.025s1.025 0.459 1.025 1.025c0 0.566-0.459 1.025-1.025 1.025s-1.025-0.459-1.025-1.025z"></path>
<path fill="#32fd6b" d="M29.973 16.341c0-0.566 0.459-1.025 1.025-1.025s1.025 0.459 1.025 1.025c0 0.566-0.459 1.025-1.025 1.025s-1.025-0.459-1.025-1.025z"></path>
</svg>
